<?xml version="1.0" encoding="UTF-8"?>
<svg version="1.1" xmlns="http://www.w3.org/2000/svg" width="1280" height="1280">
<path d="M0 0 C59.73 0 119.46 0 181 0 C184.44580364 19.5262206 184.44580364 19.5262206 185.4515686 26.86064148 C185.63245524 28.15105272 185.63245524 28.15105272 185.81699616 29.46753287 C186.21245067 32.29395723 186.6035601 35.12096383 186.99462891 37.94799805 C187.2837968 40.02136144 187.57323864 42.09468665 187.86292744 44.16797733 C188.65376309 49.83360911 189.44077218 55.49976665 190.22713733 61.16602039 C191.08255119 67.3247212 191.94158796 73.48291679 192.80018616 79.64117432 C194.29357716 90.35587958 195.78477199 101.07088806 197.27450562 111.78610229 C199.4412732 127.37075715 201.61209944 142.95484479 203.78393114 158.53879464 C204.80707688 165.88041953 205.83001348 173.22207356 206.85289001 180.56373596 C207.00719963 181.67128795 207.00719963 181.67128795 207.16462661 182.80121472 C209.63708967 200.54761182 212.10752459 218.29429117 214.57763672 236.04101562 C214.74205904 237.22231499 214.74205904 237.22231499 214.90980302 238.42747898 C216.37564011 248.95887558 217.84139769 259.49028325 219.30713177 270.02169418 C221.43791469 285.33153059 223.56876291 300.6413579 225.69970703 315.95117188 C225.87820403 317.23359629 225.87820403 317.23359629 226.06030703 318.54192828 C228.81285166 338.3177284 231.56590642 358.09345733 234.32049561 377.86897278 C234.49574875 379.12713986 234.49574875 379.12713986 234.67454237 380.41072447 C235.8457324 388.81879081 237.01700456 397.22684571 238.18840149 405.63488323 C240.726503 423.85301218 243.26296857 442.07136689 245.79623906 460.29016827 C247.65044981 473.62513782 249.50660064 486.95983605 251.36477107 500.29425442 C252.47544868 508.26510592 253.58448089 516.23618256 254.69125476 524.20757706 C255.51915378 530.16915206 256.34999823 536.13031253 257.18201137 542.09131491 C257.52006688 544.51678988 257.8571391 546.94240212 258.19316792 549.3681587 C258.64798935 552.650468 259.10627266 555.93227524 259.56547546 559.213974 C259.76355768 560.65274135 259.76355768 560.65274135 259.96564156 562.12057471 C260.1495626 563.42710214 260.1495626 563.42710214 260.33719921 564.76002407 C260.44185314 565.51213238 260.54650708 566.26424069 260.65433234 567.03914016 C260.98655895 569.20422341 260.98655895 569.20422341 262 572 C267.650253 531.60982208 273.3000381 491.21957873 278.94951534 450.8292923 C279.39848344 447.61944806 279.84745364 444.40960411 280.29642582 441.19976044 C291.10667447 363.91388172 301.91433312 286.62764235 312.71126443 209.33990192 C313.04589653 206.94450419 313.38053087 204.54910677 313.71516562 202.15370941 C317.98028098 171.62290498 322.24495984 141.09203959 326.50882769 110.56106091 C328.08699494 99.26077547 329.6652907 87.96050799 331.24367285 76.66025257 C332.3261051 68.9106275 333.40832955 61.16097344 334.4903928 53.41129684 C335.14717779 48.70775358 335.80414209 44.00423537 336.46115565 39.30072403 C336.76083337 37.15508209 337.06043658 35.00942975 337.35995603 32.86376572 C337.76844416 29.93755046 338.17720544 27.01137348 338.58602905 24.08520508 C338.70076907 23.26277282 338.81550909 22.44034056 338.93372607 21.59298611 C339.94015441 14.39298925 340.97184971 7.19705202 342 0 C401.73 0 461.46 0 523 0 C523 264.33 523 528.66 523 801 C483.4 801 443.8 801 403 801 C402.67 601.68 402.34 402.36 402 197 C388.47 286.76 374.94 376.52 361 469 C334.66517724 643.42756063 334.66517724 643.42756063 327.87695312 688.32128906 C325.43598233 704.47241483 323.00418391 720.62484605 320.5832057 736.77897573 C319.6635011 742.91281508 318.74170046 749.0463398 317.8197844 755.17984712 C316.96294408 760.88220114 316.10969054 766.58507631 315.25923824 772.28838634 C314.74610928 775.72385884 314.22962092 779.15881968 313.71213245 782.59363794 C313.4745223 784.17563463 313.23836256 785.75784992 313.00373363 787.3402915 C312.68661988 789.47792641 312.36451485 791.61474869 312.04107666 793.75143433 C311.8628751 794.94257277 311.68467354 796.1337112 311.50107193 797.36094475 C311 800 311 800 310 801 C308.62123975 801.0953919 307.23763084 801.12188622 305.85557556 801.12025452 C304.96230057 801.12162918 304.06902557 801.12300385 303.14868164 801.12442017 C302.16109863 801.12082489 301.17351562 801.11722961 300.15600586 801.11352539 C298.6049691 801.11374443 298.6049691 801.11374443 297.02259827 801.1139679 C293.58665914 801.11326827 290.15077347 801.10547358 286.71484375 801.09765625 C284.33972707 801.09579225 281.96461 801.09436826 279.5894928 801.09336853 C273.32423856 801.08954197 267.05900733 801.0797105 260.79376221 801.06866455 C254.4061311 801.0584534 248.01849629 801.05387155 241.63085938 801.04882812 C229.08722974 801.03808836 216.54361609 801.02120127 204 801 C201.66645074 789.08634438 199.73475504 777.13786134 197.94189453 765.13208008 C197.64627382 763.16734228 197.35039402 761.20264344 197.05428028 759.23797989 C196.41512957 754.99348792 195.77781832 750.74872533 195.14195061 746.50374031 C194.10680802 739.59324543 193.06758407 732.6833676 192.02796936 725.77354431 C190.51716178 715.72905399 189.00832937 705.68426866 187.50082397 695.63928223 C185.20490275 680.34128947 182.90521329 665.04386492 180.60441814 649.74660453 C180.29732766 647.70485444 179.99024517 645.66310315 179.68316519 643.62135148 C178.85478214 638.11350215 178.02639804 632.60565297 177.19797331 627.09780991 C175.92954505 618.66447172 174.66144046 610.23108493 173.39356691 601.79766333 C164.60687022 543.3519004 155.78661045 484.91122062 146.95820522 426.47174519 C145.41434855 416.25208852 143.87088445 406.03237259 142.32756662 395.81263453 C140.85366795 386.05267745 139.37941616 376.29277374 137.90505552 366.53288645 C136.84149112 359.49198586 135.77848668 352.45100102 134.71590948 345.40995139 C131.21054201 322.18377305 127.69280862 298.95958886 124.14296043 275.74016333 C123.07746561 268.76757019 122.01450078 261.79459077 120.95147902 254.82162023 C119.95075096 248.25988056 118.94539326 241.69887228 117.93644094 235.13839245 C117.32257407 231.13994938 116.71295869 227.1408667 116.10451674 223.14159489 C115.82322024 221.29873909 115.54011129 219.45615888 115.25504136 217.61388302 C114.86663569 215.10244432 114.4846516 212.59010804 114.10420227 210.07745361 C113.93424697 208.99423407 113.93424697 208.99423407 113.76085824 207.88913131 C113.1088957 203.52717702 112.89876721 199.39351851 113 195 C112.34 195 111.68 195 111 195 C111 394.98 111 594.96 111 801 C74.37 801 37.74 801 0 801 C0 536.67 0 272.34 0 0 Z " fill="#FFC812" transform="translate(138,211)"/>
<path d="M0 0 C41.91 0 83.82 0 127 0 C127 107.58 127 215.16 127 326 C171.22 326 215.44 326 261 326 C261 218.42 261 110.84 261 0 C302.91 0 344.82 0 388 0 C388 264.33 388 528.66 388 801 C346.09 801 304.18 801 261 801 C261 682.2 261 563.4 261 441 C216.78 441 172.56 441 127 441 C127 559.8 127 678.6 127 801 C85.09 801 43.18 801 0 801 C0 536.67 0 272.34 0 0 Z " fill="#FFC812" transform="translate(754,211)"/>
</svg>
